<?xml version="1.0" encoding="iso-8859-1"?>
<!-- Generator: Adobe Illustrator 19.0.0, SVG Export Plug-In . SVG Version: 6.00 Build 0)  -->
<svg version="1.1" id="Capa_1" xmlns="http://www.w3.org/2000/svg" xmlns:xlink="http://www.w3.org/1999/xlink" x="0px" y="0px"
	 viewBox="0 0 489.2 489.2" style="enable-background:new 0 0 489.2 489.2;" xml:space="preserve">
<g>
	<path d="M439.6,0h-390C22.2,0,0,22.2,0,49.6v390c0,27.4,22.2,49.6,49.6,49.6h390c27.4,0,49.6-22.2,49.6-49.6V49.7
		C489.3,22.3,467,0,439.6,0z M300.6,47.8h42.5v42.5h-42.5V47.8z M223.4,47.8h42.5v42.5h-42.5V47.8L223.4,47.8z M146.1,47.8h42.5
		v42.5h-42.5V47.8z M111.3,441.6H68.8v-42.5h42.5V441.6z M111.3,90.3H68.8V47.8h42.5V90.3z M188.6,441.6h-42.5v-42.5h42.5V441.6z
		 M265.8,441.6h-42.5v-42.5h42.5V441.6z M343.1,441.6h-42.5v-42.5h42.5V441.6z M352.5,256.7l-163.1,94.2c-9.2,5.3-20.8-1.3-20.8-12
		V150.5c0-10.7,11.6-17.3,20.8-12l163.1,94.2C361.8,238,361.8,251.4,352.5,256.7z M420.4,441.6h-42.5v-42.5h42.5V441.6z M420.4,90.3
		h-42.5V47.8h42.5V90.3z"/>
</g>
<g>
</g>
<g>
</g>
<g>
</g>
<g>
</g>
<g>
</g>
<g>
</g>
<g>
</g>
<g>
</g>
<g>
</g>
<g>
</g>
<g>
</g>
<g>
</g>
<g>
</g>
<g>
</g>
<g>
</g>
</svg>
